<?xml version="1.0" encoding="iso-8859-1"?>
<!-- Generator: Adobe Illustrator 18.0.0, SVG Export Plug-In . SVG Version: 6.00 Build 0)  -->
<!DOCTYPE svg PUBLIC "-//W3C//DTD SVG 1.1//EN" "http://www.w3.org/Graphics/SVG/1.1/DTD/svg11.dtd">
<svg version="1.1" id="Capa_1" xmlns="http://www.w3.org/2000/svg" xmlns:xlink="http://www.w3.org/1999/xlink" x="0px" y="0px"
	 viewBox="0 0 432.377 432.377" style="fill: white;" xml:space="preserve">
<g>
	<path d="M113.735,233.241c0-4.142-3.357-7.5-7.5-7.5h-8.374c-10.012-15.828-15.916-39.848-15.916-65.247
		c0-27.164,6.748-52.739,18.052-68.413c6.683-9.265,6.406-21.982-0.67-30.926c-4.013-5.07-6.133-11.175-6.133-17.656
		c0-7.994,3.223-15.4,9.075-20.854c5.847-5.449,13.496-8.14,21.509-7.57c13.984,0.987,25.305,12.273,26.333,26.253
		c0.531,7.234-1.646,14.311-6.132,19.927c-3.956,4.954-5.874,11.209-5.401,17.613c0.305,4.131,3.889,7.241,8.032,6.927
		c4.131-0.305,7.232-3.901,6.927-8.032c-0.193-2.621,0.575-5.159,2.163-7.148c6.853-8.58,10.181-19.372,9.37-30.388
		c-1.57-21.362-18.867-38.608-40.235-40.117c-12.22-0.859-23.867,3.243-32.792,11.56C83.242,19.874,78.194,31.475,78.194,43.5
		c0,9.894,3.24,19.217,9.369,26.963c2.936,3.71,3.046,8.992,0.268,12.844c-13.273,18.405-20.886,46.539-20.886,77.187
		c0,30.607,7.598,58.719,20.844,77.127c1.409,1.958,3.675,3.119,6.088,3.119h12.358
		C110.378,240.741,113.735,237.383,113.735,233.241z"/>
	<path d="M344.546,83.307c-2.778-3.853-2.669-9.134,0.268-12.844c6.129-7.745,9.368-17.069,9.368-26.963
		c0-12.025-5.048-23.626-13.849-31.828c-8.925-8.316-20.563-12.423-32.792-11.56c-21.368,1.508-38.665,18.755-40.235,40.117
		c-0.81,11.016,2.519,21.807,9.37,30.387c1.589,1.989,2.357,4.527,2.164,7.148c-0.306,4.131,2.796,7.727,6.927,8.032
		c4.142,0.317,7.728-2.796,8.032-6.927c0.473-6.405-1.445-12.66-5.402-17.613c-4.485-5.617-6.663-12.694-6.132-19.927
		c1.028-13.98,12.349-25.267,26.333-26.253c8.028-0.57,15.662,2.122,21.509,7.57c5.853,5.454,9.075,12.86,9.075,20.854
		c0,6.481-2.12,12.586-6.131,17.655c-7.078,8.943-7.354,21.66-0.671,30.926c11.304,15.674,18.052,41.249,18.052,68.413
		c0,25.397-5.904,49.418-15.917,65.247h-10.746c-4.143,0-7.5,3.358-7.5,7.5s3.357,7.5,7.5,7.5h14.73
		c2.413,0,4.679-1.161,6.088-3.119c13.247-18.41,20.845-46.521,20.845-77.127C365.432,129.846,357.819,101.713,344.546,83.307z"/>
	<path d="M184.241,78.533c-0.569,4.103,2.296,7.89,6.398,8.459c0.35,0.049,0.696,0.072,1.04,0.072c3.685,0,6.898-2.718,7.419-6.471
		c0.958-6.904-0.966-13.989-5.276-19.437c-4.012-5.069-6.132-11.174-6.132-17.656c0-7.995,3.223-15.401,9.075-20.854
		c5.847-5.448,13.496-8.139,21.508-7.57c13.984,0.987,25.305,12.273,26.333,26.253c0.531,7.234-1.646,14.311-6.132,19.927
		c-4.303,5.388-6.202,12.447-5.212,19.368c0.588,4.101,4.382,6.952,8.487,6.362c4.101-0.587,6.948-4.387,6.362-8.487
		c-0.407-2.842,0.353-5.715,2.083-7.882c6.853-8.58,10.181-19.372,9.37-30.388c-1.57-21.362-18.867-38.608-40.235-40.117
		c-12.221-0.859-23.866,3.243-32.791,11.559c-8.801,8.202-13.849,19.803-13.849,31.828c0,9.894,3.239,19.218,9.368,26.963
		C183.844,72.72,184.64,75.66,184.241,78.533z"/>
	<path d="M125.442,131.285c0,9.895,3.24,19.219,9.369,26.963c2.936,3.71,3.046,8.991,0.268,12.844
		c-8.594,11.915-14.905,28.106-18.254,46.823c-0.729,4.078,1.984,7.974,6.063,8.704c0.446,0.08,0.891,0.119,1.329,0.119
		c3.563,0,6.725-2.55,7.374-6.181c2.912-16.281,8.472-30.732,15.654-40.691c6.682-9.266,6.406-21.982-0.671-30.926
		c-4.012-5.069-6.132-11.174-6.132-17.655c0-7.994,3.223-15.4,9.075-20.854c5.847-5.449,13.491-8.137,21.509-7.57
		c13.984,0.987,25.305,12.273,26.333,26.253c0.531,7.234-1.646,14.311-6.132,19.927c-7.061,8.84-7.303,21.517-0.59,30.827
		c1.612,2.236,3.164,4.728,4.613,7.406c1.972,3.643,6.522,4.998,10.165,3.028c3.644-1.971,4.999-6.522,3.028-10.166
		c-1.755-3.243-3.652-6.285-5.64-9.042c-2.792-3.872-2.733-9.091,0.144-12.693c6.852-8.58,10.18-19.371,9.37-30.387
		c-1.57-21.362-18.867-38.608-40.235-40.117c-12.233-0.858-23.867,3.243-32.792,11.56
		C130.49,107.659,125.442,119.26,125.442,131.285z"/>
	<path d="M219.958,127.888c-0.811,11.016,2.518,21.807,9.37,30.387c2.876,3.602,2.936,8.822,0.143,12.694
		c-1.992,2.764-3.89,5.806-5.64,9.043c-1.97,3.644-0.613,8.195,3.031,10.165c3.643,1.969,8.195,0.612,10.164-3.031
		c1.444-2.671,2.996-5.163,4.611-7.404c6.714-9.31,6.472-21.986-0.589-30.828c-4.486-5.616-6.663-12.693-6.132-19.926
		c1.028-13.98,12.349-25.267,26.333-26.253c8.027-0.568,15.662,2.122,21.509,7.57c5.853,5.454,9.075,12.86,9.075,20.854
		c0,6.48-2.12,12.586-6.132,17.655c-7.078,8.944-7.354,21.661-0.671,30.926c7.182,9.958,12.741,24.409,15.654,40.69
		c0.649,3.63,3.811,6.18,7.374,6.18c0.438,0,0.883-0.039,1.33-0.119c4.077-0.73,6.791-4.626,6.062-8.704
		c-3.35-18.717-9.661-34.908-18.254-46.822c-2.778-3.852-2.669-9.134,0.268-12.844c6.129-7.746,9.369-17.07,9.369-26.963
		c0-12.025-5.048-23.626-13.849-31.828c-8.924-8.316-20.563-12.419-32.792-11.56C238.825,89.28,221.528,106.527,219.958,127.888z"/>
	<path d="M216.188,195.912c-65.193,0-118.232,53.039-118.232,118.232s53.039,118.232,118.232,118.232
		s118.232-53.039,118.232-118.232S281.382,195.912,216.188,195.912z M216.188,417.377c-56.923,0-103.232-46.31-103.232-103.232
		s46.31-103.232,103.232-103.232s103.232,46.31,103.232,103.232S273.111,417.377,216.188,417.377z"/>
	<path d="M251.901,239.167c-12.406,0-22.5,10.093-22.5,22.5c0,12.407,10.094,22.5,22.5,22.5c12.406,0,22.5-10.093,22.5-22.5
		C274.401,249.261,264.308,239.167,251.901,239.167z M251.901,269.167c-4.136,0-7.5-3.364-7.5-7.5s3.364-7.5,7.5-7.5
		c4.136,0,7.5,3.364,7.5,7.5S256.037,269.167,251.901,269.167z"/>
	<path d="M251.901,294.167c-12.406,0-22.5,10.093-22.5,22.5s10.094,22.5,22.5,22.5c12.406,0,22.5-10.093,22.5-22.5
		S264.308,294.167,251.901,294.167z M251.901,324.167c-4.136,0-7.5-3.364-7.5-7.5s3.364-7.5,7.5-7.5c4.136,0,7.5,3.364,7.5,7.5
		S256.037,324.167,251.901,324.167z"/>
	<path d="M200.901,266.667c-12.406,0-22.5,10.093-22.5,22.5s10.094,22.5,22.5,22.5s22.5-10.093,22.5-22.5
		S213.308,266.667,200.901,266.667z M200.901,296.667c-4.136,0-7.5-3.364-7.5-7.5s3.364-7.5,7.5-7.5s7.5,3.364,7.5,7.5
		S205.037,296.667,200.901,296.667z"/>
</g>
<g>
</g>
<g>
</g>
<g>
</g>
<g>
</g>
<g>
</g>
<g>
</g>
<g>
</g>
<g>
</g>
<g>
</g>
<g>
</g>
<g>
</g>
<g>
</g>
<g>
</g>
<g>
</g>
<g>
</g>
</svg>
