<?xml version="1.0" encoding="iso-8859-1"?>
<!-- Generator: Adobe Illustrator 18.0.0, SVG Export Plug-In . SVG Version: 6.00 Build 0)  -->
<!DOCTYPE svg PUBLIC "-//W3C//DTD SVG 1.1//EN" "http://www.w3.org/Graphics/SVG/1.1/DTD/svg11.dtd">
<svg version="1.1" id="Capa_1" xmlns="http://www.w3.org/2000/svg" xmlns:xlink="http://www.w3.org/1999/xlink" x="0px" y="0px"
	 viewBox="0 0 430.933 430.933" style="fill: white;" xml:space="preserve">
<path d="M389.918,329.916c-8.603,0-16.593,2.668-23.195,7.213L223.2,193.606V72.703c0-4.142-3.357-7.5-7.5-7.5
	c-17.881,0-35.247,3.541-51.615,10.524c-0.005,0.002-0.01,0.004-0.016,0.006c-13.163,5.611-25.207,13.282-35.903,22.839
	L58.644,29.049c-6.488-6.489-15.115-10.062-24.291-10.062S16.55,22.561,10.062,29.049C3.574,35.538,0,44.164,0,53.34
	s3.574,17.803,10.062,24.291l10.912,10.912c2.929,2.929,7.678,2.929,10.606,0c2.929-2.929,2.929-7.678,0-10.606L20.668,67.024
	C17.013,63.369,15,58.509,15,53.34c0-5.169,2.013-10.029,5.668-13.684s8.515-5.668,13.684-5.668c5.169,0,10.029,2.013,13.685,5.668
	l69.522,69.522c-45.542,51.007-44.365,129.267,3.528,178.857l-24.893,44.102c-4.17-1.432-8.635-2.221-13.285-2.221
	c-22.616,0-41.015,18.399-41.015,41.015s18.399,41.015,41.015,41.015s41.015-18.399,41.015-41.015
	c0-12.595-5.711-23.878-14.675-31.407l23.158-41.029c23.44,19.252,52.561,29.722,83.292,29.722c32.615,0,63.411-11.8,87.528-33.369
	l52.889,52.889c-4.545,6.602-7.213,14.591-7.213,23.195c0,22.616,18.399,41.015,41.015,41.015s41.015-18.399,41.015-41.015
	S412.533,329.916,389.918,329.916z M108.924,370.931c0,14.345-11.67,26.015-26.015,26.015s-26.015-11.67-26.015-26.015
	s11.67-26.015,26.015-26.015c1.962,0,3.872,0.226,5.711,0.639l-12.242,21.689c-2.036,3.607-0.763,8.182,2.845,10.218
	c1.165,0.658,2.431,0.97,3.68,0.97c2.618,0,5.16-1.373,6.538-3.815l12.234-21.676C106.16,357.618,108.924,363.956,108.924,370.931z
	 M208.2,80.439v79.595l-31.254-73.227C187.028,83.248,197.49,81.116,208.2,80.439z M163.15,92.694l30.426,71.288l-54.774-54.774
	C146.232,102.664,154.374,97.125,163.15,92.694z M128.186,119.805l56.158,56.158l-55.523,98.37
	C89.61,230.502,89.402,163.888,128.186,119.805z M215.699,313.216c-28.106,0-54.691-9.888-75.789-28.014l55.444-98.229
	l97.248,97.248C271.332,302.968,244.307,313.216,215.699,313.216z M389.918,396.945c-14.345,0-26.015-11.67-26.015-26.015
	c0-4.449,1.125-8.64,3.102-12.306l17.609,17.609c1.465,1.464,3.384,2.197,5.304,2.197c1.919,0,3.839-0.732,5.304-2.197
	c2.929-2.929,2.929-7.678,0-10.606l-17.61-17.61c3.666-1.977,7.857-3.102,12.306-3.102c14.345,0,26.015,11.67,26.015,26.015
	S404.263,396.945,389.918,396.945z"/>
<g>
</g>
<g>
</g>
<g>
</g>
<g>
</g>
<g>
</g>
<g>
</g>
<g>
</g>
<g>
</g>
<g>
</g>
<g>
</g>
<g>
</g>
<g>
</g>
<g>
</g>
<g>
</g>
<g>
</g>
</svg>
