<?xml version="1.0" encoding="iso-8859-1"?>
<!-- Generator: Adobe Illustrator 18.0.0, SVG Export Plug-In . SVG Version: 6.00 Build 0)  -->
<!DOCTYPE svg PUBLIC "-//W3C//DTD SVG 1.1//EN" "http://www.w3.org/Graphics/SVG/1.1/DTD/svg11.dtd">
<svg version="1.1" id="Capa_1" xmlns="http://www.w3.org/2000/svg" xmlns:xlink="http://www.w3.org/1999/xlink" x="0px" y="0px"
	 viewBox="0 0 410.224 410.224" style="fill: white;" xml:space="preserve">
<path d="M376.853,395.224h-68.14l3.225-88.774c0.074-2.035-0.683-4.013-2.097-5.479c-1.413-1.466-3.362-2.294-5.398-2.294h-36.131
	V75.99c17.78-0.71,32.027-15.389,32.027-33.339V27.678c0-4.142-3.357-7.5-7.5-7.5h-64.056c-4.143,0-7.5,3.358-7.5,7.5v14.973
	c0,17.951,14.248,32.63,32.028,33.339v222.687H217.18c-2.036,0-3.985,0.828-5.398,2.294c-1.414,1.466-2.171,3.443-2.097,5.479
	l3.225,88.774h-75.686V167.342l29.93-22.747l9.559,9.726c1.468,1.494,3.407,2.243,5.349,2.243c1.897,0,3.797-0.716,5.257-2.151
	c2.954-2.903,2.996-7.652,0.092-10.606l-8.217-8.361l11.109-8.442c3.298-2.506,3.939-7.211,1.434-10.509
	c-2.506-3.297-7.21-3.94-10.51-1.433l-44.002,33.441V41.466l26.375-13.017c3.714-1.833,5.239-6.331,3.406-10.045
	c-1.833-3.713-6.328-5.24-10.045-3.406l-19.736,9.74V7.5c0-4.142-3.357-7.5-7.5-7.5s-7.5,3.358-7.5,7.5v50.979L79.706,33.676
	c-3.575-2.086-8.171-0.879-10.258,2.7c-2.087,3.578-0.879,8.17,2.699,10.257l50.077,29.212v190.534l-26.012-15.174l1.186-23.005
	c0.213-4.137-2.968-7.663-7.104-7.876c-4.112-0.222-7.662,2.968-7.876,7.104l-0.787,15.271l-13.653-7.964
	c-3.576-2.085-8.17-0.878-10.258,2.699c-2.087,3.578-0.879,8.17,2.699,10.258l61.806,36.054v111.479H33.371
	c-4.143,0-7.5,3.358-7.5,7.5s3.357,7.5,7.5,7.5h343.482c4.143,0,7.5-3.358,7.5-7.5S380.996,395.224,376.853,395.224z
	 M236.284,42.651v-7.473h49.056v7.473c0,10.131-8.242,18.374-18.374,18.374h-12.308C244.526,61.024,236.284,52.782,236.284,42.651z
	 M296.666,313.677l-0.426,11.712h-27.928v-11.712H296.666z M253.312,313.677v11.712h-27.929l-0.426-11.712H253.312z
	 M227.921,395.224l-1.992-54.835h27.384v14.062c0,4.142,3.357,7.5,7.5,7.5s7.5-3.358,7.5-7.5v-14.062h27.383l-1.992,54.835H227.921z
	"/>
<g>
</g>
<g>
</g>
<g>
</g>
<g>
</g>
<g>
</g>
<g>
</g>
<g>
</g>
<g>
</g>
<g>
</g>
<g>
</g>
<g>
</g>
<g>
</g>
<g>
</g>
<g>
</g>
<g>
</g>
</svg>
