<?xml version="1.0" encoding="iso-8859-1"?>
<!-- Generator: Adobe Illustrator 18.0.0, SVG Export Plug-In . SVG Version: 6.00 Build 0)  -->
<!DOCTYPE svg PUBLIC "-//W3C//DTD SVG 1.1//EN" "http://www.w3.org/Graphics/SVG/1.1/DTD/svg11.dtd">
<svg version="1.1" id="Capa_1" xmlns="http://www.w3.org/2000/svg" xmlns:xlink="http://www.w3.org/1999/xlink" x="0px" y="0px"
	 viewBox="0 0 411.516 411.516" style="fill: white;" xml:space="preserve">
<g>
	<path d="M89.776,255.181h-5.598v-32.066h106.7v21.994c0,4.142,3.358,7.5,7.5,7.5s7.5-3.358,7.5-7.5v-51.96h43.854v51.96
		c0,4.142,3.357,7.5,7.5,7.5s7.5-3.358,7.5-7.5v-59.46c0-4.142-3.357-7.5-7.5-7.5h-58.854c-4.142,0-7.5,3.358-7.5,7.5v22.466h-106.7
		V185.65c0-4.142-3.358-7.5-7.5-7.5H17.832c-4.142,0-7.5,3.358-7.5,7.5v106.992c0,4.142,3.358,7.5,7.5,7.5h58.846
		c4.142,0,7.5-3.358,7.5-7.5v-22.462h5.598c4.142,0,7.5-3.358,7.5-7.5S93.918,255.181,89.776,255.181z M25.332,285.143V193.15
		h43.846v91.992H25.332z"/>
	<path d="M349.92,231.608h-58.846c-4.143,0-7.5,3.358-7.5,7.5v22.466H176.871v-22.466c0-4.142-3.358-7.5-7.5-7.5h-58.846
		c-4.142,0-7.5,3.358-7.5,7.5v106.992c0,4.142,3.358,7.5,7.5,7.5h58.846c4.142,0,7.5-3.358,7.5-7.5v-22.466h106.704v22.466
		c0,4.142,3.357,7.5,7.5,7.5h58.846c4.143,0,7.5-3.358,7.5-7.5V239.108C357.42,234.966,354.063,231.608,349.92,231.608z
		 M161.871,338.601h-43.846v-91.992h43.846V338.601z M176.871,308.635v-32.06h106.704v32.06H176.871z M342.42,338.601h-43.846
		v-91.992h43.846V338.601z"/>
	<path d="M293.684,110.12h110.332c4.143,0,7.5-3.358,7.5-7.5V65.415c0-4.142-3.357-7.5-7.5-7.5H293.684c-4.143,0-7.5,3.358-7.5,7.5
		v11.104H266.55c-8.877,0-17.555,3.595-23.804,9.857l-24.045,24.045l-13.198-13.205c-6.359-6.359-14.812-9.86-23.803-9.86
		c-0.002,0-0.005,0-0.006,0c-8.995,0.002-17.451,3.508-23.807,9.871l-13.195,13.195l-13.198-13.205
		c-6.359-6.359-14.814-9.862-23.808-9.862s-17.449,3.502-23.808,9.862l-13.206,13.206L57.473,97.216
		c-6.362-6.363-14.819-9.867-23.813-9.867c-8.987,0-17.441,3.504-23.803,9.867C3.5,103.572,0,112.029,0,121.029
		c0,8.993,3.5,17.447,9.857,23.803c6.359,6.359,14.815,9.862,23.808,9.862c8.994,0,17.449-3.502,23.808-9.862l13.198-13.198
		l13.206,13.198c6.359,6.359,14.814,9.862,23.808,9.862s17.449-3.502,23.808-9.862l13.197-13.197l13.197,13.197
		c13.129,13.128,34.49,13.128,47.617,0l13.197-13.198l24.04,24.031c6.261,6.274,14.939,9.873,23.81,9.873h19.634v11.101
		c0,4.142,3.357,7.5,7.5,7.5h110.332c4.143,0,7.5-3.358,7.5-7.5v-37.205c0-4.142-3.357-7.5-7.5-7.5H293.684
		c-4.143,0-7.5,3.358-7.5,7.5v11.104H266.55c-4.916,0-9.724-1.993-13.197-5.474l-24.046-24.037l24.052-24.052
		c3.461-3.468,8.27-5.458,13.191-5.458h19.634v11.101C286.184,106.762,289.542,110.12,293.684,110.12z M301.184,72.915h95.332V95.12
		h-95.332V72.915z M46.867,134.226c-3.526,3.526-8.215,5.468-13.202,5.468s-9.675-1.942-13.202-5.468
		C16.94,130.702,15,126.015,15,121.029c0-4.993,1.94-9.684,5.463-13.207c3.53-3.53,8.216-5.473,13.197-5.473
		c4.987,0,9.677,1.944,13.205,5.472l13.2,13.207L46.867,134.226z M120.887,134.226c-3.526,3.526-8.215,5.468-13.202,5.468
		s-9.675-1.942-13.203-5.47l-13.204-13.197l13.206-13.205c3.526-3.526,8.215-5.468,13.202-5.468s9.675,1.942,13.2,5.467l13.2,13.207
		L120.887,134.226z M194.897,134.225c-7.278,7.279-19.124,7.28-26.404,0l-13.197-13.197l13.199-13.199
		c3.526-3.529,8.214-5.474,13.201-5.475c0.001,0,0.002,0,0.004,0c4.984,0,9.671,1.942,13.195,5.466l13.199,13.207L194.897,134.225z
		 M301.184,146.935h95.332v22.205h-95.332V146.935z"/>
</g>
<g>
</g>
<g>
</g>
<g>
</g>
<g>
</g>
<g>
</g>
<g>
</g>
<g>
</g>
<g>
</g>
<g>
</g>
<g>
</g>
<g>
</g>
<g>
</g>
<g>
</g>
<g>
</g>
<g>
</g>
</svg>
