<?xml version="1.0" encoding="iso-8859-1"?>
<!-- Generator: Adobe Illustrator 18.0.0, SVG Export Plug-In . SVG Version: 6.00 Build 0)  -->
<!DOCTYPE svg PUBLIC "-//W3C//DTD SVG 1.1//EN" "http://www.w3.org/Graphics/SVG/1.1/DTD/svg11.dtd">
<svg version="1.1" id="Capa_1" xmlns="http://www.w3.org/2000/svg" xmlns:xlink="http://www.w3.org/1999/xlink" x="0px" y="0px"
	 viewBox="0 0 433.76 433.76" style="fill: white;" xml:space="preserve">
<path d="M403.668,280.578c-12.632-24.578-48.327-47.629-106.092-68.514c-33.528-12.122-65.181-20.009-76.909-22.768L183.297,6.002
	c-0.806-3.955-4.599-6.559-8.58-5.9L63.101,18.676c-2.834,0.472-5.15,2.521-5.962,5.276L25.123,132.479
	c-1.142,3.872,0.984,7.953,4.812,9.234l181.967,60.926c0.128,0.043,39.527,8.676,80.728,23.585
	c53.237,19.266,87.021,40.433,97.7,61.213c4.438,8.638,4.759,17.087,0.978,25.83c-4.945,11.437-17.515,15.767-34.659,15.766
	c-27.315-0.002-66.232-11-104.344-21.772c-36.011-10.179-73.249-20.704-103.515-22.901c-37.026-2.688-59.165,7.569-67.662,31.362
	c-6.7,18.761-4.67,35.876,6.035,50.871c21.078,29.523,76.115,49.768,163.584,60.171c54.711,6.508,105.716,6.996,119.747,6.996
	c2.385,0,3.704-0.014,3.789-0.015c4.142-0.051,7.458-3.449,7.407-7.591c-0.051-4.142-3.443-7.492-7.591-7.408
	c-0.575,0.008-58.675,0.618-121.732-6.894c-81.845-9.75-134.75-28.415-152.998-53.977c-7.79-10.912-9.136-23.05-4.116-37.107
	c13.725-38.429,84.514-18.421,152.971,0.929c34.62,9.785,67.32,19.028,94.664,21.624c12.297,1.168,49.724,4.722,62.187-24.099
	C410.67,306.282,410.197,293.28,403.668,280.578z M201.339,169.583l-86.62-97.886l56.474-49.975L201.339,169.583z M190.106,179.523
	L47.011,131.612l56.474-49.975L190.106,179.523z M104.779,60.464L78.926,31.249l72.502-12.065L104.779,60.464z M67.693,41.189
	l25.853,29.215l-46.649,41.28L67.693,41.189z"/>
<g>
</g>
<g>
</g>
<g>
</g>
<g>
</g>
<g>
</g>
<g>
</g>
<g>
</g>
<g>
</g>
<g>
</g>
<g>
</g>
<g>
</g>
<g>
</g>
<g>
</g>
<g>
</g>
<g>
</g>
</svg>
