<?xml version="1.0" encoding="iso-8859-1"?>
<!-- Generator: Adobe Illustrator 18.0.0, SVG Export Plug-In . SVG Version: 6.00 Build 0)  -->
<!DOCTYPE svg PUBLIC "-//W3C//DTD SVG 1.1//EN" "http://www.w3.org/Graphics/SVG/1.1/DTD/svg11.dtd">
<svg version="1.1" id="Capa_1" xmlns="http://www.w3.org/2000/svg" xmlns:xlink="http://www.w3.org/1999/xlink" x="0px" y="0px"
	 viewBox="0 0 375.107 375.107" style="fill: white;" xml:space="preserve">
<g>
	<path d="M367.607,14.935H7.5c-4.142,0-7.5,3.358-7.5,7.5v245.892c0,4.142,3.358,7.5,7.5,7.5h41.678v76.844
		c0,4.142,3.358,7.5,7.5,7.5h261.754c4.143,0,7.5-3.358,7.5-7.5v-76.844h41.675c4.143,0,7.5-3.358,7.5-7.5V22.435
		C375.107,18.293,371.75,14.935,367.607,14.935z M360.107,29.935v174.048H15V29.935H360.107z M310.932,345.172H64.178v-99.22h15.142
		v76.579c0,4.142,3.358,7.5,7.5,7.5h201.471c4.143,0,7.5-3.358,7.5-7.5v-76.579h15.142V345.172z M94.319,245.951h186.471v69.079
		H94.319V245.951z M325.932,260.827v-14.876h15.503c4.143,0,7.5-3.358,7.5-7.5s-3.357-7.5-7.5-7.5H33.675
		c-4.142,0-7.5,3.358-7.5,7.5s3.358,7.5,7.5,7.5h15.502v14.876H15v-41.844h345.107v41.844H325.932z"/>
	<path d="M187.555,188.818c39.125,0,70.956-31.831,70.956-70.956s-31.83-70.956-70.956-70.956
		c-39.125,0-70.956,31.831-70.956,70.956S148.43,188.818,187.555,188.818z M187.555,61.906c30.854,0,55.956,25.102,55.956,55.956
		s-25.102,55.956-55.956,55.956s-55.956-25.102-55.956-55.956S156.701,61.906,187.555,61.906z"/>
	<path d="M187.555,160.681c23.611,0,42.82-19.208,42.82-42.819s-19.209-42.819-42.82-42.819s-42.819,19.208-42.819,42.819
		S163.944,160.681,187.555,160.681z M187.555,90.043c15.34,0,27.82,12.479,27.82,27.819s-12.479,27.819-27.82,27.819
		c-15.34,0-27.819-12.479-27.819-27.819S172.215,90.043,187.555,90.043z"/>
	<path d="M269.254,100.004h72.974c4.143,0,7.5-3.358,7.5-7.5v-39.66c0-4.142-3.357-7.5-7.5-7.5h-72.974c-4.143,0-7.5,3.358-7.5,7.5
		v39.66C261.754,96.646,265.112,100.004,269.254,100.004z M276.754,60.344h57.974v24.66h-57.974V60.344z"/>
	<path d="M69.06,186.18c14.887,0,26.999-12.112,26.999-26.999s-12.112-26.999-26.999-26.999s-26.999,12.112-26.999,26.999
		S54.172,186.18,69.06,186.18z M69.06,147.182c6.616,0,11.999,5.383,11.999,11.999S75.676,171.18,69.06,171.18
		s-11.999-5.383-11.999-11.999S62.443,147.182,69.06,147.182z"/>
	<path d="M306.048,132.182c-14.888,0-26.999,12.112-26.999,26.999s12.111,26.999,26.999,26.999s26.999-12.112,26.999-26.999
		S320.936,132.182,306.048,132.182z M306.048,171.18c-6.616,0-11.999-5.383-11.999-11.999s5.383-11.999,11.999-11.999
		s11.999,5.383,11.999,11.999S312.665,171.18,306.048,171.18z"/>
</g>
<g>
</g>
<g>
</g>
<g>
</g>
<g>
</g>
<g>
</g>
<g>
</g>
<g>
</g>
<g>
</g>
<g>
</g>
<g>
</g>
<g>
</g>
<g>
</g>
<g>
</g>
<g>
</g>
<g>
</g>
</svg>
