<?xml version="1.0" encoding="iso-8859-1"?>
<!-- Generator: Adobe Illustrator 18.0.0, SVG Export Plug-In . SVG Version: 6.00 Build 0)  -->
<!DOCTYPE svg PUBLIC "-//W3C//DTD SVG 1.1//EN" "http://www.w3.org/Graphics/SVG/1.1/DTD/svg11.dtd">
<svg version="1.1" id="Capa_1" xmlns="http://www.w3.org/2000/svg" xmlns:xlink="http://www.w3.org/1999/xlink" x="0px" y="0px"
	 viewBox="0 0 393 393" style="fill: white;" xml:space="preserve">
<g>
	<path d="M283.939,0H109.06C79.665,0,55.75,23.915,55.75,53.31v69.19c0,4.142,3.357,7.5,7.5,7.5H79v71.5c0,4.142,3.357,7.5,7.5,7.5
		h220c4.143,0,7.5-3.358,7.5-7.5V130h15.75c4.143,0,7.5-3.358,7.5-7.5V53.31C337.25,23.915,313.335,0,283.939,0z M299,194H94V55h205
		V194z M322.25,115H314V47.5c0-4.142-3.357-7.5-7.5-7.5h-220c-4.143,0-7.5,3.358-7.5,7.5V115h-8.25V53.31
		C70.75,32.186,87.936,15,109.06,15h174.88c21.124,0,38.311,17.186,38.311,38.31V115z"/>
	<path d="M162.106,259c4.143,0,7.5-3.358,7.5-7.5s-3.357-7.5-7.5-7.5h-17.426c-4.143,0-7.5,3.358-7.5,7.5s3.357,7.5,7.5,7.5H162.106
		z"/>
	<path d="M205.213,259c4.143,0,7.5-3.358,7.5-7.5s-3.357-7.5-7.5-7.5h-17.426c-4.143,0-7.5,3.358-7.5,7.5s3.357,7.5,7.5,7.5H205.213
		z"/>
	<path d="M230.894,259h17.426c4.143,0,7.5-3.358,7.5-7.5s-3.357-7.5-7.5-7.5h-17.426c-4.143,0-7.5,3.358-7.5,7.5
		S226.751,259,230.894,259z"/>
	<path d="M283.5,212c-4.143,0-7.5,3.358-7.5,7.5V244h-2c-4.143,0-7.5,3.358-7.5,7.5s3.357,7.5,7.5,7.5h2v113.019l-7.882-4.892
		c-2.424-1.504-5.487-1.503-7.909,0l-15.384,9.545l-15.379-9.545c-2.422-1.503-5.488-1.503-7.91,0l-15.379,9.545l-15.378-9.545
		c-2.422-1.504-5.488-1.503-7.91,0l-15.379,9.545l-15.375-9.545c-2.424-1.504-5.489-1.504-7.911,0l-15.376,9.544L117,369.329V259h2
		c4.143,0,7.5-3.358,7.5-7.5s-3.357-7.5-7.5-7.5h-2v-24.5c0-4.142-3.357-7.5-7.5-7.5s-7.5,3.358-7.5,7.5v154
		c0,2.594,1.34,5.003,3.544,6.372l19.328,12c2.424,1.504,5.489,1.504,7.911,0l15.376-9.544l15.375,9.544
		c2.424,1.504,5.489,1.503,7.911,0l15.379-9.545l15.378,9.545c1.211,0.752,2.583,1.128,3.955,1.128s2.744-0.376,3.955-1.127
		l15.379-9.545l15.379,9.545c2.422,1.503,5.487,1.503,7.909,0l15.384-9.546l15.382,9.546c2.315,1.436,5.222,1.504,7.602,0.182
		c2.379-1.324,3.854-3.832,3.854-6.554v-166C291,215.358,287.643,212,283.5,212z"/>
</g>
<g>
</g>
<g>
</g>
<g>
</g>
<g>
</g>
<g>
</g>
<g>
</g>
<g>
</g>
<g>
</g>
<g>
</g>
<g>
</g>
<g>
</g>
<g>
</g>
<g>
</g>
<g>
</g>
<g>
</g>
</svg>
