<?xml version="1.0" encoding="iso-8859-1"?>
<!-- Generator: Adobe Illustrator 18.0.0, SVG Export Plug-In . SVG Version: 6.00 Build 0)  -->
<!DOCTYPE svg PUBLIC "-//W3C//DTD SVG 1.1//EN" "http://www.w3.org/Graphics/SVG/1.1/DTD/svg11.dtd">
<svg version="1.1" id="Capa_1" xmlns="http://www.w3.org/2000/svg" xmlns:xlink="http://www.w3.org/1999/xlink" x="0px" y="0px"
	 viewBox="0 0 444.011 444.011" style="fill: white;" xml:space="preserve">
<g>
	<path d="M167.962,372.545H89.559c-10.184,0-18.469-8.285-18.469-18.469v-134.98h262.742v11.5c0,4.142,3.358,7.5,7.5,7.5
		s7.5-3.358,7.5-7.5v-11.5h2.131c9.097,0,16.498-7.401,16.498-16.498v-33.004c0-9.097-7.401-16.498-16.498-16.498h-14.27
		L235.875,9.56c-7.131-10.152-21.193-12.61-31.344-5.48l0,0c-0.734,0.516-1.416,1.077-2.069,1.661
		c-0.653-0.584-1.335-1.145-2.069-1.661c0,0,0,0,0,0c-10.153-7.13-24.214-4.672-31.344,5.48L68.23,153.096H53.96
		c-9.097,0-16.498,7.401-16.498,16.498v33.004c0,9.097,7.401,16.498,16.498,16.498h2.131v134.98
		c0,18.455,15.014,33.469,33.469,33.469h78.402c4.142,0,7.5-3.358,7.5-7.5S172.104,372.545,167.962,372.545z M213.152,16.355
		L213.152,16.355c3.385-2.377,8.072-1.557,10.448,1.827L330.244,170.01c2.376,3.384,1.557,8.071-1.827,10.448
		c-1.64,1.151-3.629,1.595-5.602,1.25c-1.973-0.345-3.694-1.438-4.846-3.077L211.326,26.803
		C208.949,23.419,209.768,18.732,213.152,16.355z M202.462,40.281l79.241,112.815H123.221L202.462,40.281z M74.679,170.011
		L181.323,18.182c1.458-2.076,3.785-3.187,6.148-3.187c1.489,0,2.992,0.441,4.3,1.36l0,0c3.384,2.377,4.204,7.064,1.827,10.448
		L86.954,178.632c-1.151,1.639-2.873,2.732-4.846,3.077c-1.974,0.344-3.963-0.099-5.602-1.25
		C73.122,178.081,72.303,173.394,74.679,170.011z M52.462,202.597v-33.004c0-0.826,0.672-1.498,1.498-1.498h5.258
		c-2.575,8.968,0.614,18.981,8.667,24.637c3.831,2.691,8.298,4.094,12.885,4.094c1.302,0,2.614-0.113,3.922-0.342
		c5.92-1.035,11.083-4.313,14.537-9.231l13.457-19.158h179.553l13.456,19.158c3.454,4.918,8.617,8.197,14.537,9.231
		c1.309,0.229,2.621,0.342,3.922,0.342c4.586,0,9.054-1.404,12.885-4.094c8.053-5.656,11.242-15.669,8.667-24.637h5.258
		c0.826,0,1.498,0.672,1.498,1.498v33.004c0,0.826-0.672,1.498-1.498,1.498H53.96C53.133,204.096,52.462,203.424,52.462,202.597z"/>
	<path d="M404.624,247.579c-1.422-1.581-3.449-2.483-5.575-2.483H292.875c-2.126,0-4.153,0.903-5.575,2.483
		c-1.422,1.581-2.107,3.691-1.883,5.806l3.698,34.936c0.437,4.119,4.132,7.108,8.248,6.669c4.119-0.436,7.105-4.129,6.669-8.248
		l-2.82-26.646h89.503l-14.5,137h-32.252c-4.142,0-7.5,3.358-7.5,7.5s3.358,7.5,7.5,7.5h39c3.836,0,7.055-2.896,7.458-6.71
		l16.087-152C406.731,251.27,406.046,249.16,404.624,247.579z"/>
	<path d="M312.351,320.442c-11.416-11.416-25.282-19.154-39.044-21.789c-14.82-2.838-27.853,0.472-36.698,9.317
		c-3.026,3.026-5.434,6.601-7.157,10.626c-1.468,3.43-3.354,6.608-5.586,9.494c-1.991-1.595-4.419-3.339-7.215-4.983
		c11.428-13.096,11.697-33.003-0.078-46.416l-2.768-3.153c-2.733-3.113-7.471-3.42-10.584-0.688l-3.154,2.769
		c-11.952,10.494-15.089,27.34-8.813,41.121c-1.219,0.11-2.45,0.271-3.7,0.517c-4.064,0.798-6.712,4.741-5.914,8.805
		c0.798,4.065,4.745,6.709,8.805,5.914c8.662-1.703,16.789,2.502,22.096,6.339c-1.864,1.159-3.822,2.188-5.872,3.066
		c-4.025,1.723-7.601,4.131-10.627,7.157c-8.868,8.868-12.704,21.237-10.802,34.83c1.836,13.114,9.09,26.58,20.427,37.917
		c9.415,9.415,26.755,18.179,42.169,21.313c4.668,0.949,9.363,1.414,14.022,1.414c18.417,0,36.265-7.267,49.612-20.613
		c16.756-16.756,23.917-40.629,19.153-63.861C327.059,342.156,320.912,329.003,312.351,320.442z M207.45,289.531
		c4.324,7.201,3.724,16.419-1.495,23C201.632,305.329,202.231,296.111,207.45,289.531z M300.863,412.791
		c-13.155,13.155-31.865,18.802-50.039,15.106c-12.402-2.522-27.256-9.925-34.551-17.22c-9.046-9.046-14.791-19.483-16.178-29.39
		c-1.235-8.819,1.092-16.683,6.553-22.144c1.669-1.669,3.662-3.006,5.923-3.974c13.85-5.929,24.742-16.821,30.671-30.672
		c0.968-2.261,2.304-4.253,3.973-5.922c3.987-3.987,9.633-5.88,16.069-5.88c11.963,0,26.652,6.545,38.46,18.353
		c6.357,6.357,11.261,17.25,14.183,31.5C319.676,380.828,314.044,399.61,300.863,412.791z"/>
</g>
<g>
</g>
<g>
</g>
<g>
</g>
<g>
</g>
<g>
</g>
<g>
</g>
<g>
</g>
<g>
</g>
<g>
</g>
<g>
</g>
<g>
</g>
<g>
</g>
<g>
</g>
<g>
</g>
<g>
</g>
</svg>
