<?xml version="1.0" encoding="iso-8859-1"?>
<!-- Generator: Adobe Illustrator 18.0.0, SVG Export Plug-In . SVG Version: 6.00 Build 0)  -->
<!DOCTYPE svg PUBLIC "-//W3C//DTD SVG 1.1//EN" "http://www.w3.org/Graphics/SVG/1.1/DTD/svg11.dtd">
<svg version="1.1" id="Capa_1" xmlns="http://www.w3.org/2000/svg" xmlns:xlink="http://www.w3.org/1999/xlink" x="0px" y="0px"
	 viewBox="0 0 473.521 473.521" style="fill: white;" xml:space="preserve">
<g>
	<path d="M326.348,0C301.949,0,282.1,19.85,282.1,44.248v109.429h-28.46c-3.856,0-7.084,2.925-7.464,6.763
		c-2.041,20.664-3.076,42.613-3.076,65.237c0,56.546,7.053,126.034,20.593,160.344c-0.531,0.369-1.023,0.8-1.449,1.304
		c-1.425,1.685-2.036,3.911-1.67,6.087l4.094,24.354c0.607,3.612,3.733,6.257,7.396,6.257H282.1v41.998c0,4.142,3.358,7.5,7.5,7.5
		s7.5-3.358,7.5-7.5v-41.998h10.036c3.662,0,6.789-2.645,7.396-6.257l4.094-24.354c0.366-2.176-0.245-4.402-1.67-6.087
		c-0.426-0.504-0.918-0.935-1.449-1.305c13.539-34.311,20.592-103.798,20.592-160.344c0-22.625-1.035-44.573-3.076-65.237
		c-0.379-3.838-3.607-6.763-7.464-6.763H297.1V44.248C297.1,28.121,310.22,15,326.348,15s29.248,13.121,29.248,29.248v11.25
		c0,4.142,3.358,7.5,7.5,7.5s7.5-3.358,7.5-7.5v-11.25C370.596,19.85,350.746,0,326.348,0z M300.792,409.024h-22.384l-1.573-9.354
		h25.529L300.792,409.024z M321.099,225.677c0,66.197-9.031,132.691-21.307,158.992h-20.385
		c-12.276-26.3-21.308-92.795-21.308-158.992c0-19.678,0.799-38.817,2.376-57h58.247C320.301,186.86,321.099,206,321.099,225.677z"
		/>
	<path d="M227.346,160.44c-0.379-3.838-3.607-6.763-7.464-6.763h-28.46V44.248C191.422,19.85,171.572,0,147.174,0
		s-44.248,19.85-44.248,44.248v11.25c0,4.142,3.358,7.5,7.5,7.5s7.5-3.358,7.5-7.5v-11.25c0-16.127,13.121-29.248,29.248-29.248
		s29.248,13.121,29.248,29.248v109.429h-28.459c-3.856,0-7.084,2.925-7.464,6.763c-2.041,20.664-3.076,42.613-3.076,65.237
		c0,56.546,7.053,126.033,20.592,160.344c-0.531,0.369-1.023,0.801-1.449,1.304c-1.425,1.685-2.036,3.911-1.67,6.087l4.094,24.354
		c0.607,3.612,3.734,6.257,7.396,6.257h10.036v41.998c0,4.142,3.358,7.5,7.5,7.5s7.5-3.358,7.5-7.5v-41.998h10.037
		c3.663,0,6.789-2.645,7.396-6.257l4.094-24.354c0.366-2.176-0.246-4.402-1.67-6.087c-0.426-0.504-0.918-0.935-1.449-1.304
		c13.539-34.31,20.593-103.798,20.593-160.344C230.422,203.053,229.387,181.104,227.346,160.44z M195.114,409.024H172.73
		l-1.572-9.354h25.529L195.114,409.024z M194.114,384.669h-20.385c-12.276-26.301-21.307-92.795-21.307-158.992
		c0-19.678,0.799-38.817,2.376-57h58.247c1.578,18.183,2.376,37.322,2.376,57C215.422,291.874,206.391,358.369,194.114,384.669z"/>
</g>
<g>
</g>
<g>
</g>
<g>
</g>
<g>
</g>
<g>
</g>
<g>
</g>
<g>
</g>
<g>
</g>
<g>
</g>
<g>
</g>
<g>
</g>
<g>
</g>
<g>
</g>
<g>
</g>
<g>
</g>
</svg>
